<svg xmlns="http://www.w3.org/2000/svg" xmlns:xlink="http://www.w3.org/1999/xlink" width="350" zoomAndPan="magnify" viewBox="0 0 262.5 33.749998" height="45" preserveAspectRatio="xMidYMid meet" version="1.0"><defs><g/></defs><g fill="#ffffff" fill-opacity="1"><g transform="translate(4.573151, 26.425553)"><g><path d="M 18.921875 -17.203125 C 18.066406 -17.117188 17.476562 -16.960938 17.15625 -16.734375 C 16.632812 -16.367188 16.375 -15.382812 16.375 -13.78125 L 16.375 0.296875 L 15.921875 0.296875 L 4.09375 -14.421875 L 4.09375 -3.9375 C 4.09375 -2.582031 4.253906 -1.6875 4.578125 -1.25 C 4.898438 -0.8125 5.578125 -0.566406 6.609375 -0.515625 L 6.609375 0 L 0.328125 0 L 0.328125 -0.515625 C 1.429688 -0.578125 2.140625 -0.816406 2.453125 -1.234375 C 2.765625 -1.660156 2.921875 -2.5625 2.921875 -3.9375 L 2.921875 -15.734375 C 2.378906 -16.359375 1.953125 -16.757812 1.640625 -16.9375 C 1.328125 -17.113281 0.890625 -17.203125 0.328125 -17.203125 L 0.328125 -17.71875 L 4.890625 -17.71875 L 15.203125 -4.765625 L 15.203125 -13.78125 C 15.203125 -15.425781 14.941406 -16.425781 14.421875 -16.78125 C 14.046875 -17 13.453125 -17.140625 12.640625 -17.203125 L 12.640625 -17.71875 L 18.921875 -17.71875 Z M 18.921875 -17.203125 "/></g></g></g><g fill="#ffffff" fill-opacity="1"><g transform="translate(25.21171, 26.425553)"><g><path d="M 15.984375 -4.515625 L 14.78125 0 L 0.328125 0 L 0.328125 -0.515625 C 1.304688 -0.578125 1.9375 -0.753906 2.21875 -1.046875 C 2.507812 -1.347656 2.65625 -1.972656 2.65625 -2.921875 L 2.65625 -14.796875 C 2.65625 -15.742188 2.515625 -16.359375 2.234375 -16.640625 C 1.953125 -16.929688 1.316406 -17.117188 0.328125 -17.203125 L 0.328125 -17.71875 L 14.53125 -17.71875 L 14.609375 -13.890625 L 13.9375 -13.890625 C 13.707031 -15.085938 13.351562 -15.851562 12.875 -16.1875 C 12.394531 -16.53125 11.394531 -16.703125 9.875 -16.703125 L 6.265625 -16.703125 C 5.910156 -16.703125 5.671875 -16.644531 5.546875 -16.53125 C 5.429688 -16.414062 5.375 -16.171875 5.375 -15.796875 L 5.375 -9.84375 L 9.5 -9.84375 C 10.59375 -9.84375 11.3125 -9.992188 11.65625 -10.296875 C 12 -10.609375 12.265625 -11.304688 12.453125 -12.390625 L 13.0625 -12.390625 L 13.0625 -6.1875 L 12.453125 -6.1875 C 12.265625 -7.289062 12 -7.992188 11.65625 -8.296875 C 11.320312 -8.597656 10.601562 -8.75 9.5 -8.75 L 5.375 -8.75 L 5.375 -2.140625 C 5.375 -1.660156 5.445312 -1.375 5.59375 -1.28125 C 5.84375 -1.082031 6.707031 -0.984375 8.1875 -0.984375 L 8.90625 -0.984375 C 10.820312 -0.984375 12.1875 -1.210938 13 -1.671875 C 13.820312 -2.128906 14.566406 -3.078125 15.234375 -4.515625 Z M 15.984375 -4.515625 "/></g></g></g><g fill="#ffffff" fill-opacity="1"><g transform="translate(42.879011, 26.425553)"><g><path d="M 15.984375 -4.515625 L 14.78125 0 L 0.328125 0 L 0.328125 -0.515625 C 1.304688 -0.578125 1.9375 -0.753906 2.21875 -1.046875 C 2.507812 -1.347656 2.65625 -1.972656 2.65625 -2.921875 L 2.65625 -14.796875 C 2.65625 -15.742188 2.515625 -16.359375 2.234375 -16.640625 C 1.953125 -16.929688 1.316406 -17.117188 0.328125 -17.203125 L 0.328125 -17.71875 L 14.53125 -17.71875 L 14.609375 -13.890625 L 13.9375 -13.890625 C 13.707031 -15.085938 13.351562 -15.851562 12.875 -16.1875 C 12.394531 -16.53125 11.394531 -16.703125 9.875 -16.703125 L 6.265625 -16.703125 C 5.910156 -16.703125 5.671875 -16.644531 5.546875 -16.53125 C 5.429688 -16.414062 5.375 -16.171875 5.375 -15.796875 L 5.375 -9.84375 L 9.5 -9.84375 C 10.59375 -9.84375 11.3125 -9.992188 11.65625 -10.296875 C 12 -10.609375 12.265625 -11.304688 12.453125 -12.390625 L 13.0625 -12.390625 L 13.0625 -6.1875 L 12.453125 -6.1875 C 12.265625 -7.289062 12 -7.992188 11.65625 -8.296875 C 11.320312 -8.597656 10.601562 -8.75 9.5 -8.75 L 5.375 -8.75 L 5.375 -2.140625 C 5.375 -1.660156 5.445312 -1.375 5.59375 -1.28125 C 5.84375 -1.082031 6.707031 -0.984375 8.1875 -0.984375 L 8.90625 -0.984375 C 10.820312 -0.984375 12.1875 -1.210938 13 -1.671875 C 13.820312 -2.128906 14.566406 -3.078125 15.234375 -4.515625 Z M 15.984375 -4.515625 "/></g></g></g><g fill="#ffffff" fill-opacity="1"><g transform="translate(60.546313, 26.425553)"><g><path d="M 16 -4.65625 L 14.71875 0 L 0.328125 0 L 0.328125 -0.515625 C 1.304688 -0.578125 1.9375 -0.753906 2.21875 -1.046875 C 2.507812 -1.347656 2.65625 -1.972656 2.65625 -2.921875 L 2.65625 -14.796875 C 2.65625 -15.742188 2.515625 -16.359375 2.234375 -16.640625 C 1.953125 -16.929688 1.316406 -17.117188 0.328125 -17.203125 L 0.328125 -17.71875 L 7.875 -17.71875 L 7.875 -17.203125 C 6.820312 -17.140625 6.140625 -16.957031 5.828125 -16.65625 C 5.523438 -16.363281 5.375 -15.742188 5.375 -14.796875 L 5.375 -2.140625 C 5.375 -1.679688 5.507812 -1.382812 5.78125 -1.25 C 6.0625 -1.113281 6.695312 -1.046875 7.6875 -1.046875 L 9.46875 -1.046875 C 11.707031 -1.046875 13.28125 -1.585938 14.1875 -2.671875 C 14.519531 -3.066406 14.90625 -3.726562 15.34375 -4.65625 Z M 16 -4.65625 "/></g></g></g><g fill="#ffffff" fill-opacity="1"><g transform="translate(78.213612, 26.425553)"><g/></g></g><g fill="#ffffff" fill-opacity="1"><g transform="translate(86.217642, 26.425553)"><g><path d="M 16.9375 -3.03125 C 16.125 -1.9375 15.082031 -1.09375 13.8125 -0.5 C 12.539062 0.0820312 11.148438 0.375 9.640625 0.375 C 6.972656 0.375 4.820312 -0.457031 3.1875 -2.125 C 1.5625 -3.789062 0.75 -5.984375 0.75 -8.703125 C 0.75 -11.816406 1.789062 -14.242188 3.875 -15.984375 C 5.59375 -17.390625 7.53125 -18.09375 9.6875 -18.09375 C 11.007812 -18.09375 12.320312 -17.878906 13.625 -17.453125 C 14.050781 -17.285156 14.40625 -17.203125 14.6875 -17.203125 C 15.257812 -17.203125 15.628906 -17.5 15.796875 -18.09375 L 16.359375 -18.09375 L 16.59375 -12.046875 L 15.984375 -12.046875 C 15.734375 -12.921875 15.484375 -13.585938 15.234375 -14.046875 C 14.984375 -14.515625 14.644531 -14.960938 14.21875 -15.390625 C 13.125 -16.472656 11.789062 -17.015625 10.21875 -17.015625 C 8.28125 -17.015625 6.734375 -16.289062 5.578125 -14.84375 C 4.429688 -13.40625 3.859375 -11.472656 3.859375 -9.046875 C 3.859375 -5.847656 4.675781 -3.570312 6.3125 -2.21875 C 7.457031 -1.269531 8.847656 -0.796875 10.484375 -0.796875 C 12.597656 -0.796875 14.585938 -1.695312 16.453125 -3.5 Z M 16.9375 -3.03125 "/></g></g></g><g fill="#ffffff" fill-opacity="1"><g transform="translate(105.383959, 26.425553)"><g><path d="M 18.796875 0 L 11.34375 0 L 11.34375 -0.515625 C 12.382812 -0.578125 13.035156 -0.757812 13.296875 -1.0625 C 13.566406 -1.375 13.703125 -2.09375 13.703125 -3.21875 L 13.703125 -8.4375 L 5.59375 -8.4375 L 5.59375 -2.921875 C 5.59375 -1.972656 5.734375 -1.351562 6.015625 -1.0625 C 6.304688 -0.78125 6.953125 -0.597656 7.953125 -0.515625 L 7.953125 0 L 0.515625 0 L 0.515625 -0.515625 C 1.546875 -0.578125 2.191406 -0.757812 2.453125 -1.0625 C 2.722656 -1.375 2.859375 -2.09375 2.859375 -3.21875 L 2.859375 -14.796875 C 2.859375 -15.765625 2.722656 -16.382812 2.453125 -16.65625 C 2.191406 -16.9375 1.546875 -17.117188 0.515625 -17.203125 L 0.515625 -17.71875 L 7.953125 -17.71875 L 7.953125 -17.203125 C 6.910156 -17.117188 6.253906 -16.9375 5.984375 -16.65625 C 5.722656 -16.382812 5.59375 -15.765625 5.59375 -14.796875 L 5.59375 -9.609375 L 13.703125 -9.609375 L 13.703125 -14.796875 C 13.703125 -15.765625 13.566406 -16.382812 13.296875 -16.65625 C 13.035156 -16.9375 12.382812 -17.117188 11.34375 -17.203125 L 11.34375 -17.71875 L 18.796875 -17.71875 L 18.796875 -17.203125 C 17.753906 -17.117188 17.097656 -16.9375 16.828125 -16.65625 C 16.566406 -16.382812 16.4375 -15.765625 16.4375 -14.796875 L 16.4375 -2.921875 C 16.4375 -1.972656 16.578125 -1.351562 16.859375 -1.0625 C 17.148438 -0.78125 17.796875 -0.597656 18.796875 -0.515625 Z M 18.796875 0 "/></g></g></g><g fill="#ffffff" fill-opacity="1"><g transform="translate(126.022517, 26.425553)"><g><path d="M 18.890625 0 L 12.078125 0 L 12.078125 -0.515625 C 12.804688 -0.515625 13.300781 -0.59375 13.5625 -0.75 C 13.8125 -0.875 13.9375 -1.085938 13.9375 -1.390625 C 13.9375 -1.816406 13.769531 -2.425781 13.4375 -3.21875 L 12.34375 -5.78125 L 5.328125 -5.78125 L 4.09375 -2.65625 C 3.945312 -2.28125 3.875 -1.929688 3.875 -1.609375 C 3.875 -0.878906 4.484375 -0.515625 5.703125 -0.515625 L 5.703125 0 L 0.40625 0 L 0.40625 -0.515625 C 1.039062 -0.546875 1.535156 -0.796875 1.890625 -1.265625 C 2.253906 -1.742188 2.863281 -2.953125 3.71875 -4.890625 L 9.28125 -18.046875 L 9.828125 -18.046875 L 16.484375 -2.84375 C 16.953125 -1.84375 17.316406 -1.210938 17.578125 -0.953125 C 17.847656 -0.691406 18.285156 -0.546875 18.890625 -0.515625 Z M 11.96875 -6.875 L 8.859375 -14.234375 L 5.78125 -6.875 Z M 11.96875 -6.875 "/></g></g></g><g fill="#ffffff" fill-opacity="1"><g transform="translate(146.661075, 26.425553)"><g><path d="M 18.921875 -17.203125 C 18.066406 -17.117188 17.476562 -16.960938 17.15625 -16.734375 C 16.632812 -16.367188 16.375 -15.382812 16.375 -13.78125 L 16.375 0.296875 L 15.921875 0.296875 L 4.09375 -14.421875 L 4.09375 -3.9375 C 4.09375 -2.582031 4.253906 -1.6875 4.578125 -1.25 C 4.898438 -0.8125 5.578125 -0.566406 6.609375 -0.515625 L 6.609375 0 L 0.328125 0 L 0.328125 -0.515625 C 1.429688 -0.578125 2.140625 -0.816406 2.453125 -1.234375 C 2.765625 -1.660156 2.921875 -2.5625 2.921875 -3.9375 L 2.921875 -15.734375 C 2.378906 -16.359375 1.953125 -16.757812 1.640625 -16.9375 C 1.328125 -17.113281 0.890625 -17.203125 0.328125 -17.203125 L 0.328125 -17.71875 L 4.890625 -17.71875 L 15.203125 -4.765625 L 15.203125 -13.78125 C 15.203125 -15.425781 14.941406 -16.425781 14.421875 -16.78125 C 14.046875 -17 13.453125 -17.140625 12.640625 -17.203125 L 12.640625 -17.71875 L 18.921875 -17.71875 Z M 18.921875 -17.203125 "/></g></g></g><g fill="#ffffff" fill-opacity="1"><g transform="translate(167.299632, 26.425553)"><g><path d="M 8.4375 0 L 0.484375 0 L 0.484375 -0.515625 C 1.609375 -0.546875 2.320312 -0.703125 2.625 -0.984375 C 2.925781 -1.273438 3.078125 -1.921875 3.078125 -2.921875 L 3.078125 -14.796875 C 3.078125 -15.785156 2.925781 -16.414062 2.625 -16.6875 C 2.332031 -16.96875 1.617188 -17.140625 0.484375 -17.203125 L 0.484375 -17.71875 L 8.4375 -17.71875 L 8.4375 -17.203125 C 7.3125 -17.148438 6.59375 -16.984375 6.28125 -16.703125 C 5.96875 -16.421875 5.8125 -15.785156 5.8125 -14.796875 L 5.8125 -2.921875 C 5.8125 -1.941406 5.96875 -1.300781 6.28125 -1 C 6.601562 -0.707031 7.320312 -0.546875 8.4375 -0.515625 Z M 8.4375 0 "/></g></g></g><g fill="#ffffff" fill-opacity="1"><g transform="translate(177.525403, 26.425553)"><g><path d="M 18.8125 -17.203125 C 18.132812 -17.148438 17.554688 -16.921875 17.078125 -16.515625 C 16.597656 -16.117188 15.945312 -15.332031 15.125 -14.15625 L 11.15625 -8.109375 L 11.15625 -2.921875 C 11.15625 -1.898438 11.316406 -1.25 11.640625 -0.96875 C 11.960938 -0.695312 12.722656 -0.546875 13.921875 -0.515625 L 13.921875 0 L 5.734375 0 L 5.734375 -0.515625 C 6.941406 -0.566406 7.691406 -0.738281 7.984375 -1.03125 C 8.285156 -1.320312 8.4375 -2.050781 8.4375 -3.21875 L 8.4375 -7.875 L 4.921875 -13.015625 C 3.585938 -14.898438 2.691406 -16.066406 2.234375 -16.515625 C 1.773438 -16.960938 1.226562 -17.191406 0.59375 -17.203125 L 0.59375 -17.71875 L 8.078125 -17.71875 L 8.078125 -17.203125 C 7.878906 -17.191406 7.660156 -17.1875 7.421875 -17.1875 C 6.597656 -17.132812 6.1875 -16.875 6.1875 -16.40625 C 6.1875 -16.070312 6.335938 -15.679688 6.640625 -15.234375 L 10.59375 -9.28125 L 14.421875 -15.34375 C 14.671875 -15.75 14.796875 -16.078125 14.796875 -16.328125 C 14.796875 -16.648438 14.660156 -16.875 14.390625 -17 C 14.128906 -17.125 13.648438 -17.191406 12.953125 -17.203125 L 12.953125 -17.71875 L 18.8125 -17.71875 Z M 18.8125 -17.203125 "/></g></g></g><g fill="#ffffff" fill-opacity="1"><g transform="translate(198.163972, 26.425553)"><g><path d="M 18.890625 0 L 12.078125 0 L 12.078125 -0.515625 C 12.804688 -0.515625 13.300781 -0.59375 13.5625 -0.75 C 13.8125 -0.875 13.9375 -1.085938 13.9375 -1.390625 C 13.9375 -1.816406 13.769531 -2.425781 13.4375 -3.21875 L 12.34375 -5.78125 L 5.328125 -5.78125 L 4.09375 -2.65625 C 3.945312 -2.28125 3.875 -1.929688 3.875 -1.609375 C 3.875 -0.878906 4.484375 -0.515625 5.703125 -0.515625 L 5.703125 0 L 0.40625 0 L 0.40625 -0.515625 C 1.039062 -0.546875 1.535156 -0.796875 1.890625 -1.265625 C 2.253906 -1.742188 2.863281 -2.953125 3.71875 -4.890625 L 9.28125 -18.046875 L 9.828125 -18.046875 L 16.484375 -2.84375 C 16.953125 -1.84375 17.316406 -1.210938 17.578125 -0.953125 C 17.847656 -0.691406 18.285156 -0.546875 18.890625 -0.515625 Z M 11.96875 -6.875 L 8.859375 -14.234375 L 5.78125 -6.875 Z M 11.96875 -6.875 "/></g></g></g><g fill="#ffffff" fill-opacity="1"><g transform="translate(218.802541, 26.425553)"><g><path d="M 17.640625 0 L 13.328125 0 L 6.953125 -8.25 L 5.453125 -8.1875 L 5.453125 -2.921875 C 5.453125 -1.953125 5.59375 -1.320312 5.875 -1.03125 C 6.164062 -0.75 6.832031 -0.578125 7.875 -0.515625 L 7.875 0 L 0.453125 0 L 0.453125 -0.515625 C 1.453125 -0.578125 2.082031 -0.765625 2.34375 -1.078125 C 2.601562 -1.390625 2.734375 -2.101562 2.734375 -3.21875 L 2.734375 -14.796875 C 2.734375 -15.742188 2.601562 -16.351562 2.34375 -16.625 C 2.082031 -16.90625 1.453125 -17.097656 0.453125 -17.203125 L 0.453125 -17.71875 L 7.84375 -17.71875 C 9.09375 -17.71875 10.234375 -17.554688 11.265625 -17.234375 C 12.304688 -16.910156 13.082031 -16.472656 13.59375 -15.921875 C 14.289062 -15.140625 14.640625 -14.171875 14.640625 -13.015625 C 14.640625 -11.691406 14.1875 -10.664062 13.28125 -9.9375 C 12.507812 -9.3125 11.347656 -8.84375 9.796875 -8.53125 L 15.3125 -1.765625 C 15.6875 -1.316406 16.035156 -1.003906 16.359375 -0.828125 C 16.691406 -0.648438 17.117188 -0.546875 17.640625 -0.515625 Z M 11.71875 -13.0625 C 11.71875 -14.3125 11.320312 -15.234375 10.53125 -15.828125 C 9.738281 -16.429688 8.503906 -16.734375 6.828125 -16.734375 C 6.285156 -16.734375 5.921875 -16.664062 5.734375 -16.53125 C 5.546875 -16.394531 5.453125 -16.140625 5.453125 -15.765625 L 5.453125 -9.1875 C 6.765625 -9.21875 7.726562 -9.289062 8.34375 -9.40625 C 8.96875 -9.519531 9.585938 -9.75 10.203125 -10.09375 C 11.210938 -10.625 11.71875 -11.613281 11.71875 -13.0625 Z M 11.71875 -13.0625 "/></g></g></g><g fill="#ffffff" fill-opacity="1"><g transform="translate(237.968852, 26.425553)"><g><path d="M 18.890625 0 L 12.078125 0 L 12.078125 -0.515625 C 12.804688 -0.515625 13.300781 -0.59375 13.5625 -0.75 C 13.8125 -0.875 13.9375 -1.085938 13.9375 -1.390625 C 13.9375 -1.816406 13.769531 -2.425781 13.4375 -3.21875 L 12.34375 -5.78125 L 5.328125 -5.78125 L 4.09375 -2.65625 C 3.945312 -2.28125 3.875 -1.929688 3.875 -1.609375 C 3.875 -0.878906 4.484375 -0.515625 5.703125 -0.515625 L 5.703125 0 L 0.40625 0 L 0.40625 -0.515625 C 1.039062 -0.546875 1.535156 -0.796875 1.890625 -1.265625 C 2.253906 -1.742188 2.863281 -2.953125 3.71875 -4.890625 L 9.28125 -18.046875 L 9.828125 -18.046875 L 16.484375 -2.84375 C 16.953125 -1.84375 17.316406 -1.210938 17.578125 -0.953125 C 17.847656 -0.691406 18.285156 -0.546875 18.890625 -0.515625 Z M 11.96875 -6.875 L 8.859375 -14.234375 L 5.78125 -6.875 Z M 11.96875 -6.875 "/></g></g></g></svg>