<svg xmlns="http://www.w3.org/2000/svg" xmlns:xlink="http://www.w3.org/1999/xlink" width="350" zoomAndPan="magnify" viewBox="0 0 262.5 33.749998" height="45" preserveAspectRatio="xMidYMid meet" version="1.0"><defs><g/></defs><g fill="#ffffff" fill-opacity="1"><g transform="translate(4.162594, 25.41495)"><g><path d="M 19.4375 -17.671875 C 18.550781 -17.578125 17.945312 -17.410156 17.625 -17.171875 C 17.09375 -16.804688 16.828125 -15.800781 16.828125 -14.15625 L 16.828125 0.296875 L 16.359375 0.296875 L 4.203125 -14.8125 L 4.203125 -4.046875 C 4.203125 -2.648438 4.363281 -1.726562 4.6875 -1.28125 C 5.019531 -0.832031 5.71875 -0.578125 6.78125 -0.515625 L 6.78125 0 L 0.328125 0 L 0.328125 -0.515625 C 1.460938 -0.585938 2.191406 -0.835938 2.515625 -1.265625 C 2.835938 -1.703125 3 -2.628906 3 -4.046875 L 3 -16.15625 C 2.445312 -16.800781 2.007812 -17.210938 1.6875 -17.390625 C 1.363281 -17.578125 0.910156 -17.671875 0.328125 -17.671875 L 0.328125 -18.1875 L 5.03125 -18.1875 L 15.609375 -4.890625 L 15.609375 -14.15625 C 15.609375 -15.84375 15.34375 -16.867188 14.8125 -17.234375 C 14.425781 -17.453125 13.8125 -17.597656 12.96875 -17.671875 L 12.96875 -18.1875 L 19.4375 -18.1875 Z M 19.4375 -17.671875 "/></g></g></g><g fill="#ffffff" fill-opacity="1"><g transform="translate(24.905119, 25.41495)"><g><path d="M 16.40625 -4.640625 L 15.171875 0 L 0.328125 0 L 0.328125 -0.515625 C 1.335938 -0.585938 1.988281 -0.773438 2.28125 -1.078125 C 2.570312 -1.390625 2.71875 -2.03125 2.71875 -3 L 2.71875 -15.203125 C 2.71875 -16.171875 2.578125 -16.800781 2.296875 -17.09375 C 2.015625 -17.382812 1.359375 -17.578125 0.328125 -17.671875 L 0.328125 -18.1875 L 14.921875 -18.1875 L 15 -14.265625 L 14.3125 -14.265625 C 14.082031 -15.492188 13.71875 -16.28125 13.21875 -16.625 C 12.726562 -16.976562 11.703125 -17.15625 10.140625 -17.15625 L 6.4375 -17.15625 C 6.0625 -17.15625 5.816406 -17.09375 5.703125 -16.96875 C 5.585938 -16.851562 5.53125 -16.601562 5.53125 -16.21875 L 5.53125 -10.109375 L 9.75 -10.109375 C 10.875 -10.109375 11.613281 -10.265625 11.96875 -10.578125 C 12.320312 -10.890625 12.59375 -11.601562 12.78125 -12.71875 L 13.40625 -12.71875 L 13.40625 -6.34375 L 12.78125 -6.34375 C 12.59375 -7.476562 12.328125 -8.203125 11.984375 -8.515625 C 11.640625 -8.828125 10.894531 -8.984375 9.75 -8.984375 L 5.53125 -8.984375 L 5.53125 -2.203125 C 5.53125 -1.703125 5.601562 -1.40625 5.75 -1.3125 C 6 -1.113281 6.882812 -1.015625 8.40625 -1.015625 L 9.15625 -1.015625 C 11.113281 -1.015625 12.515625 -1.25 13.359375 -1.71875 C 14.203125 -2.1875 14.960938 -3.160156 15.640625 -4.640625 Z M 16.40625 -4.640625 "/></g></g></g><g fill="#ffffff" fill-opacity="1"><g transform="translate(42.598098, 25.41495)"><g><path d="M 16.40625 -4.640625 L 15.171875 0 L 0.328125 0 L 0.328125 -0.515625 C 1.335938 -0.585938 1.988281 -0.773438 2.28125 -1.078125 C 2.570312 -1.390625 2.71875 -2.03125 2.71875 -3 L 2.71875 -15.203125 C 2.71875 -16.171875 2.578125 -16.800781 2.296875 -17.09375 C 2.015625 -17.382812 1.359375 -17.578125 0.328125 -17.671875 L 0.328125 -18.1875 L 14.921875 -18.1875 L 15 -14.265625 L 14.3125 -14.265625 C 14.082031 -15.492188 13.71875 -16.28125 13.21875 -16.625 C 12.726562 -16.976562 11.703125 -17.15625 10.140625 -17.15625 L 6.4375 -17.15625 C 6.0625 -17.15625 5.816406 -17.09375 5.703125 -16.96875 C 5.585938 -16.851562 5.53125 -16.601562 5.53125 -16.21875 L 5.53125 -10.109375 L 9.75 -10.109375 C 10.875 -10.109375 11.613281 -10.265625 11.96875 -10.578125 C 12.320312 -10.890625 12.59375 -11.601562 12.78125 -12.71875 L 13.40625 -12.71875 L 13.40625 -6.34375 L 12.78125 -6.34375 C 12.59375 -7.476562 12.328125 -8.203125 11.984375 -8.515625 C 11.640625 -8.828125 10.894531 -8.984375 9.75 -8.984375 L 5.53125 -8.984375 L 5.53125 -2.203125 C 5.53125 -1.703125 5.601562 -1.40625 5.75 -1.3125 C 6 -1.113281 6.882812 -1.015625 8.40625 -1.015625 L 9.15625 -1.015625 C 11.113281 -1.015625 12.515625 -1.25 13.359375 -1.71875 C 14.203125 -2.1875 14.960938 -3.160156 15.640625 -4.640625 Z M 16.40625 -4.640625 "/></g></g></g><g fill="#ffffff" fill-opacity="1"><g transform="translate(60.291077, 25.41495)"><g><path d="M 16.4375 -4.78125 L 15.109375 0 L 0.328125 0 L 0.328125 -0.515625 C 1.335938 -0.585938 1.988281 -0.773438 2.28125 -1.078125 C 2.570312 -1.390625 2.71875 -2.03125 2.71875 -3 L 2.71875 -15.203125 C 2.71875 -16.171875 2.578125 -16.800781 2.296875 -17.09375 C 2.015625 -17.382812 1.359375 -17.578125 0.328125 -17.671875 L 0.328125 -18.1875 L 8.078125 -18.1875 L 8.078125 -17.671875 C 6.992188 -17.597656 6.296875 -17.410156 5.984375 -17.109375 C 5.679688 -16.804688 5.53125 -16.171875 5.53125 -15.203125 L 5.53125 -2.203125 C 5.53125 -1.722656 5.671875 -1.414062 5.953125 -1.28125 C 6.234375 -1.144531 6.878906 -1.078125 7.890625 -1.078125 L 9.734375 -1.078125 C 12.023438 -1.078125 13.632812 -1.632812 14.5625 -2.75 C 14.914062 -3.15625 15.3125 -3.832031 15.75 -4.78125 Z M 16.4375 -4.78125 "/></g></g></g><g fill="#ffffff" fill-opacity="1"><g transform="translate(77.984056, 25.41495)"><g/></g></g><g fill="#ffffff" fill-opacity="1"><g transform="translate(85.759161, 25.41495)"><g><path d="M 17.390625 -3.109375 C 16.554688 -1.984375 15.488281 -1.117188 14.1875 -0.515625 C 12.882812 0.0859375 11.453125 0.390625 9.890625 0.390625 C 7.160156 0.390625 4.957031 -0.460938 3.28125 -2.171875 C 1.601562 -3.890625 0.765625 -6.144531 0.765625 -8.9375 C 0.765625 -12.144531 1.835938 -14.632812 3.984375 -16.40625 C 5.742188 -17.851562 7.734375 -18.578125 9.953125 -18.578125 C 11.304688 -18.578125 12.648438 -18.359375 13.984375 -17.921875 C 14.429688 -17.753906 14.800781 -17.671875 15.09375 -17.671875 C 15.675781 -17.671875 16.050781 -17.972656 16.21875 -18.578125 L 16.796875 -18.578125 L 17.046875 -12.375 L 16.40625 -12.375 C 16.144531 -13.269531 15.882812 -13.953125 15.625 -14.421875 C 15.375 -14.898438 15.03125 -15.359375 14.59375 -15.796875 C 13.476562 -16.921875 12.113281 -17.484375 10.5 -17.484375 C 8.5 -17.484375 6.90625 -16.738281 5.71875 -15.25 C 4.539062 -13.769531 3.953125 -11.785156 3.953125 -9.296875 C 3.953125 -6.015625 4.796875 -3.675781 6.484375 -2.28125 C 7.660156 -1.3125 9.09375 -0.828125 10.78125 -0.828125 C 12.9375 -0.828125 14.976562 -1.75 16.90625 -3.59375 Z M 17.390625 -3.109375 "/></g></g></g><g fill="#ffffff" fill-opacity="1"><g transform="translate(104.990662, 25.41495)"><g><path d="M 19.296875 0 L 11.65625 0 L 11.65625 -0.515625 C 12.71875 -0.585938 13.382812 -0.78125 13.65625 -1.09375 C 13.9375 -1.40625 14.078125 -2.140625 14.078125 -3.296875 L 14.078125 -8.65625 L 5.75 -8.65625 L 5.75 -3 C 5.75 -2.03125 5.894531 -1.394531 6.1875 -1.09375 C 6.476562 -0.800781 7.132812 -0.609375 8.15625 -0.515625 L 8.15625 0 L 0.515625 0 L 0.515625 -0.515625 C 1.578125 -0.585938 2.242188 -0.78125 2.515625 -1.09375 C 2.796875 -1.40625 2.9375 -2.140625 2.9375 -3.296875 L 2.9375 -15.203125 C 2.9375 -16.191406 2.796875 -16.828125 2.515625 -17.109375 C 2.242188 -17.390625 1.578125 -17.578125 0.515625 -17.671875 L 0.515625 -18.1875 L 8.15625 -18.1875 L 8.15625 -17.671875 C 7.09375 -17.578125 6.425781 -17.390625 6.15625 -17.109375 C 5.882812 -16.828125 5.75 -16.191406 5.75 -15.203125 L 5.75 -9.859375 L 14.078125 -9.859375 L 14.078125 -15.203125 C 14.078125 -16.191406 13.9375 -16.828125 13.65625 -17.109375 C 13.382812 -17.390625 12.71875 -17.578125 11.65625 -17.671875 L 11.65625 -18.1875 L 19.296875 -18.1875 L 19.296875 -17.671875 C 18.234375 -17.578125 17.5625 -17.390625 17.28125 -17.109375 C 17.007812 -16.828125 16.875 -16.191406 16.875 -15.203125 L 16.875 -3 C 16.875 -2.03125 17.019531 -1.394531 17.3125 -1.09375 C 17.601562 -0.800781 18.265625 -0.609375 19.296875 -0.515625 Z M 19.296875 0 "/></g></g></g><g fill="#ffffff" fill-opacity="1"><g transform="translate(125.733189, 25.41495)"><g><path d="M 19.40625 0 L 12.390625 0 L 12.390625 -0.515625 C 13.140625 -0.515625 13.65625 -0.597656 13.9375 -0.765625 C 14.1875 -0.898438 14.3125 -1.117188 14.3125 -1.421875 C 14.3125 -1.867188 14.140625 -2.492188 13.796875 -3.296875 L 12.671875 -5.9375 L 5.46875 -5.9375 L 4.203125 -2.71875 C 4.054688 -2.332031 3.984375 -1.976562 3.984375 -1.65625 C 3.984375 -0.894531 4.609375 -0.515625 5.859375 -0.515625 L 5.859375 0 L 0.40625 0 L 0.40625 -0.515625 C 1.070312 -0.554688 1.585938 -0.816406 1.953125 -1.296875 C 2.316406 -1.785156 2.941406 -3.03125 3.828125 -5.03125 L 9.53125 -18.53125 L 10.09375 -18.53125 L 16.9375 -2.90625 C 17.40625 -1.882812 17.773438 -1.238281 18.046875 -0.96875 C 18.328125 -0.707031 18.78125 -0.554688 19.40625 -0.515625 Z M 12.28125 -7.0625 L 9.09375 -14.625 L 5.9375 -7.0625 Z M 12.28125 -7.0625 "/></g></g></g><g fill="#ffffff" fill-opacity="1"><g transform="translate(146.475716, 25.41495)"><g><path d="M 19.4375 -17.671875 C 18.550781 -17.578125 17.945312 -17.410156 17.625 -17.171875 C 17.09375 -16.804688 16.828125 -15.800781 16.828125 -14.15625 L 16.828125 0.296875 L 16.359375 0.296875 L 4.203125 -14.8125 L 4.203125 -4.046875 C 4.203125 -2.648438 4.363281 -1.726562 4.6875 -1.28125 C 5.019531 -0.832031 5.71875 -0.578125 6.78125 -0.515625 L 6.78125 0 L 0.328125 0 L 0.328125 -0.515625 C 1.460938 -0.585938 2.191406 -0.835938 2.515625 -1.265625 C 2.835938 -1.703125 3 -2.628906 3 -4.046875 L 3 -16.15625 C 2.445312 -16.800781 2.007812 -17.210938 1.6875 -17.390625 C 1.363281 -17.578125 0.910156 -17.671875 0.328125 -17.671875 L 0.328125 -18.1875 L 5.03125 -18.1875 L 15.609375 -4.890625 L 15.609375 -14.15625 C 15.609375 -15.84375 15.34375 -16.867188 14.8125 -17.234375 C 14.425781 -17.453125 13.8125 -17.597656 12.96875 -17.671875 L 12.96875 -18.1875 L 19.4375 -18.1875 Z M 19.4375 -17.671875 "/></g></g></g><g fill="#ffffff" fill-opacity="1"><g transform="translate(167.218244, 25.41495)"><g><path d="M 8.65625 0 L 0.5 0 L 0.5 -0.515625 C 1.644531 -0.554688 2.375 -0.722656 2.6875 -1.015625 C 3 -1.304688 3.15625 -1.96875 3.15625 -3 L 3.15625 -15.203125 C 3.15625 -16.203125 3.003906 -16.84375 2.703125 -17.125 C 2.398438 -17.414062 1.664062 -17.597656 0.5 -17.671875 L 0.5 -18.1875 L 8.65625 -18.1875 L 8.65625 -17.671875 C 7.5 -17.617188 6.757812 -17.441406 6.4375 -17.140625 C 6.125 -16.847656 5.96875 -16.203125 5.96875 -15.203125 L 5.96875 -3 C 5.96875 -1.988281 6.128906 -1.332031 6.453125 -1.03125 C 6.785156 -0.726562 7.519531 -0.554688 8.65625 -0.515625 Z M 8.65625 0 "/></g></g></g><g fill="#ffffff" fill-opacity="1"><g transform="translate(177.273635, 25.41495)"><g><path d="M 19.328125 -17.671875 C 18.628906 -17.617188 18.03125 -17.382812 17.53125 -16.96875 C 17.039062 -16.5625 16.375 -15.753906 15.53125 -14.546875 L 11.46875 -8.328125 L 11.46875 -3 C 11.46875 -1.945312 11.628906 -1.28125 11.953125 -1 C 12.285156 -0.71875 13.066406 -0.554688 14.296875 -0.515625 L 14.296875 0 L 5.875 0 L 5.875 -0.515625 C 7.125 -0.578125 7.898438 -0.757812 8.203125 -1.0625 C 8.503906 -1.363281 8.65625 -2.109375 8.65625 -3.296875 L 8.65625 -8.078125 L 5.0625 -13.359375 C 3.6875 -15.296875 2.765625 -16.492188 2.296875 -16.953125 C 1.828125 -17.410156 1.265625 -17.648438 0.609375 -17.671875 L 0.609375 -18.1875 L 8.296875 -18.1875 L 8.296875 -17.671875 C 8.097656 -17.648438 7.867188 -17.640625 7.609375 -17.640625 C 6.765625 -17.585938 6.34375 -17.320312 6.34375 -16.84375 C 6.34375 -16.5 6.5 -16.097656 6.8125 -15.640625 L 10.890625 -9.53125 L 14.8125 -15.75 C 15.070312 -16.164062 15.203125 -16.503906 15.203125 -16.765625 C 15.203125 -17.097656 15.0625 -17.328125 14.78125 -17.453125 C 14.507812 -17.578125 14.015625 -17.648438 13.296875 -17.671875 L 13.296875 -18.1875 L 19.328125 -18.1875 Z M 19.328125 -17.671875 "/></g></g></g><g fill="#ffffff" fill-opacity="1"><g transform="translate(198.016163, 25.41495)"><g><path d="M 19.40625 0 L 12.390625 0 L 12.390625 -0.515625 C 13.140625 -0.515625 13.65625 -0.597656 13.9375 -0.765625 C 14.1875 -0.898438 14.3125 -1.117188 14.3125 -1.421875 C 14.3125 -1.867188 14.140625 -2.492188 13.796875 -3.296875 L 12.671875 -5.9375 L 5.46875 -5.9375 L 4.203125 -2.71875 C 4.054688 -2.332031 3.984375 -1.976562 3.984375 -1.65625 C 3.984375 -0.894531 4.609375 -0.515625 5.859375 -0.515625 L 5.859375 0 L 0.40625 0 L 0.40625 -0.515625 C 1.070312 -0.554688 1.585938 -0.816406 1.953125 -1.296875 C 2.316406 -1.785156 2.941406 -3.03125 3.828125 -5.03125 L 9.53125 -18.53125 L 10.09375 -18.53125 L 16.9375 -2.90625 C 17.40625 -1.882812 17.773438 -1.238281 18.046875 -0.96875 C 18.328125 -0.707031 18.78125 -0.554688 19.40625 -0.515625 Z M 12.28125 -7.0625 L 9.09375 -14.625 L 5.9375 -7.0625 Z M 12.28125 -7.0625 "/></g></g></g><g fill="#ffffff" fill-opacity="1"><g transform="translate(218.75869, 25.41495)"><g><path d="M 18.109375 0 L 13.6875 0 L 7.140625 -8.46875 L 5.609375 -8.40625 L 5.609375 -3 C 5.609375 -2.007812 5.753906 -1.363281 6.046875 -1.0625 C 6.335938 -0.769531 7.015625 -0.585938 8.078125 -0.515625 L 8.078125 0 L 0.46875 0 L 0.46875 -0.515625 C 1.488281 -0.585938 2.128906 -0.785156 2.390625 -1.109375 C 2.660156 -1.429688 2.796875 -2.160156 2.796875 -3.296875 L 2.796875 -15.203125 C 2.796875 -16.171875 2.660156 -16.796875 2.390625 -17.078125 C 2.128906 -17.359375 1.488281 -17.554688 0.46875 -17.671875 L 0.46875 -18.1875 L 8.046875 -18.1875 C 9.335938 -18.1875 10.515625 -18.019531 11.578125 -17.6875 C 12.640625 -17.363281 13.4375 -16.921875 13.96875 -16.359375 C 14.675781 -15.546875 15.03125 -14.546875 15.03125 -13.359375 C 15.03125 -12.003906 14.5625 -10.953125 13.625 -10.203125 C 12.84375 -9.554688 11.65625 -9.078125 10.0625 -8.765625 L 15.71875 -1.8125 C 16.101562 -1.351562 16.460938 -1.03125 16.796875 -0.84375 C 17.140625 -0.664062 17.578125 -0.554688 18.109375 -0.515625 Z M 12.03125 -13.40625 C 12.03125 -14.695312 11.625 -15.644531 10.8125 -16.25 C 10 -16.863281 8.734375 -17.171875 7.015625 -17.171875 C 6.460938 -17.171875 6.085938 -17.101562 5.890625 -16.96875 C 5.703125 -16.832031 5.609375 -16.570312 5.609375 -16.1875 L 5.609375 -9.421875 C 6.941406 -9.460938 7.925781 -9.539062 8.5625 -9.65625 C 9.207031 -9.78125 9.84375 -10.015625 10.46875 -10.359375 C 11.507812 -10.910156 12.03125 -11.925781 12.03125 -13.40625 Z M 12.03125 -13.40625 "/></g></g></g><g fill="#ffffff" fill-opacity="1"><g transform="translate(237.99019, 25.41495)"><g><path d="M 19.40625 0 L 12.390625 0 L 12.390625 -0.515625 C 13.140625 -0.515625 13.65625 -0.597656 13.9375 -0.765625 C 14.1875 -0.898438 14.3125 -1.117188 14.3125 -1.421875 C 14.3125 -1.867188 14.140625 -2.492188 13.796875 -3.296875 L 12.671875 -5.9375 L 5.46875 -5.9375 L 4.203125 -2.71875 C 4.054688 -2.332031 3.984375 -1.976562 3.984375 -1.65625 C 3.984375 -0.894531 4.609375 -0.515625 5.859375 -0.515625 L 5.859375 0 L 0.40625 0 L 0.40625 -0.515625 C 1.070312 -0.554688 1.585938 -0.816406 1.953125 -1.296875 C 2.316406 -1.785156 2.941406 -3.03125 3.828125 -5.03125 L 9.53125 -18.53125 L 10.09375 -18.53125 L 16.9375 -2.90625 C 17.40625 -1.882812 17.773438 -1.238281 18.046875 -0.96875 C 18.328125 -0.707031 18.78125 -0.554688 19.40625 -0.515625 Z M 12.28125 -7.0625 L 9.09375 -14.625 L 5.9375 -7.0625 Z M 12.28125 -7.0625 "/></g></g></g></svg>